<?xml version="1.0" standalone="no"?>
<!DOCTYPE svg PUBLIC "-//W3C//DTD SVG 20010904//EN"
 "http://www.w3.org/TR/2001/REC-SVG-20010904/DTD/svg10.dtd">
<svg version="1.0" xmlns="http://www.w3.org/2000/svg"
 width="256.000000pt" height="256.000000pt" viewBox="0 0 256.000000 256.000000"
 preserveAspectRatio="xMidYMid meet">

<g transform="translate(0.000000,256.000000) scale(0.100000,-0.100000)"
fill="#000000" stroke="none">
<path d="M480 2309 c-154 -31 -280 -160 -310 -318 -14 -72 -14 -1350 0 -1422
31 -162 155 -288 315 -319 87 -16 1585 -9 1636 8 62 21 157 89 193 139 53 71
77 144 83 250 l6 92 -31 30 c-37 37 -62 39 -99 7 -26 -23 -28 -31 -33 -119 -5
-82 -9 -101 -36 -143 -18 -30 -48 -60 -78 -79 l-49 -30 -797 0 -797 0 -49 30
c-30 19 -60 49 -79 79 l-30 49 0 717 0 717 30 49 c19 30 49 60 79 79 l49 30
797 0 797 0 49 -30 c30 -19 60 -49 79 -79 l30 -49 5 -495 5 -494 28 -24 c37
-32 62 -30 98 6 l30 30 -3 492 c-4 548 -2 529 -75 636 -41 60 -111 115 -186
146 -52 21 -59 21 -832 23 -429 0 -800 -3 -825 -8z"/>
<path d="M760 1629 c-173 -30 -283 -147 -311 -330 -29 -195 48 -367 197 -440
130 -64 299 -61 449 10 104 48 105 50 105 201 0 176 6 170 -184 170 -138 0
-146 -1 -160 -22 -42 -59 -8 -86 109 -90 l90 -3 3 -66 3 -66 -53 -24 c-63 -27
-182 -37 -246 -19 -56 15 -115 76 -139 143 -21 61 -24 203 -5 259 37 106 115
162 228 162 85 1 120 -18 180 -96 22 -29 48 -54 58 -56 31 -6 65 8 82 34 39
59 -41 172 -150 213 -68 25 -178 34 -256 20z"/>
<path d="M1313 1616 l-28 -24 0 -367 0 -367 29 -25 c35 -29 80 -26 109 8 15
19 17 53 17 375 0 237 -4 361 -11 377 -11 24 -47 47 -74 47 -8 0 -27 -11 -42
-24z"/>
<path d="M1549 1601 l-24 -19 0 -362 0 -362 29 -25 c23 -19 36 -23 60 -19 57
12 61 22 66 199 l5 162 158 5 c167 5 177 8 177 55 0 47 -10 50 -177 55 l-158
5 -3 103 -3 102 165 0 c91 0 176 4 190 10 39 14 53 53 32 85 l-16 25 -239 0
c-220 0 -241 -1 -262 -19z"/>
</g>
</svg>
